<?xml version="1.0" encoding="utf-8"?>
<!-- Generator: Adobe Illustrator 25.3.1, SVG Export Plug-In . SVG Version: 6.00 Build 0)  -->
<svg version="1.1" id="Layer_1" xmlns="http://www.w3.org/2000/svg" xmlns:xlink="http://www.w3.org/1999/xlink" x="0px" y="0px"
	 viewBox="0 0 981.1 1132.9" style="enable-background:new 0 0 981.1 1132.9;" xml:space="preserve">
<style type="text/css">
	.st0{fill:#E2E3E4;}
	.st1{fill:#1C75BC;}
	.st2{fill:url(#SVGID_1_);}
	.st3{fill:url(#SVGID_2_);}
	.st4{fill:#F7941D;}
	.st5{fill:#CCEBF7;}
	.st6{fill:url(#SVGID_3_);}
	.st7{fill:url(#SVGID_4_);}
	.st8{fill:#5CBA47;}
	.st9{fill:url(#SVGID_5_);}
	.st10{fill:url(#SVGID_6_);}
	.st11{fill:#C2C4C6;}
	.st12{fill:#FFFFFF;}
	.st13{fill:#ECEDEE;}
	.st14{fill:none;}
	.st15{fill:none;stroke:#000000;stroke-width:0.5;stroke-linecap:round;stroke-linejoin:round;}
	.st16{fill:url(#SVGID_7_);}
</style>
<g id="XMLID_6_">
	<g>
		<polygon class="st0" points="980.8,283.4 980.9,849.6 490.6,566.4 		"/>
		<polygon class="st1" points="980.9,849.6 490.6,1132.6 490.6,566.4 		"/>
		<polygon class="st1" points="980.8,283.4 490.6,566.4 490.5,0.2 		"/>
		<radialGradient id="SVGID_1_" cx="480.8843" cy="565.1918" r="549.2659" gradientUnits="userSpaceOnUse">
			<stop  offset="0" style="stop-color:#FFFFFF"/>
			<stop  offset="1" style="stop-color:#5688C7"/>
		</radialGradient>
		<polygon class="st2" points="490.6,566.4 490.6,1132.6 0.3,849.5 		"/>
		<polygon class="st1" points="490.5,0.2 490.6,566.4 0.2,283.3 		"/>
		<radialGradient id="SVGID_2_" cx="480.8845" cy="565.1924" r="549.2653" gradientUnits="userSpaceOnUse">
			<stop  offset="0" style="stop-color:#FFFFFF"/>
			<stop  offset="1" style="stop-color:#5688C7"/>
		</radialGradient>
		<polygon class="st3" points="490.6,566.4 0.3,849.5 0.2,283.3 		"/>
	</g>
	<g>
	</g>
</g>
<g id="XMLID_5_">
	<g>
		<polygon class="st0" points="858.3,354.2 858.4,778.9 735.8,708.1 735.8,425 		"/>
		<polygon class="st4" points="858.4,778.9 490.7,991.2 490.7,849.6 735.8,708.1 		"/>
		<polygon class="st4" points="858.3,354.2 735.8,425 490.6,283.4 490.6,141.9 		"/>
		<polygon class="st5" points="735.8,425 735.8,708.1 490.7,566.5 		"/>
		<polygon class="st5" points="735.8,708.1 490.7,849.6 490.7,566.5 		"/>
		<polygon class="st5" points="735.8,425 490.7,566.5 490.6,283.4 		"/>
		<polygon class="st5" points="490.7,566.5 490.7,849.6 245.5,708 		"/>
		<radialGradient id="SVGID_3_" cx="494.4676" cy="551.6122" r="582.9524" gradientUnits="userSpaceOnUse">
			<stop  offset="0" style="stop-color:#FFFFFF"/>
			<stop  offset="1" style="stop-color:#F7941D"/>
		</radialGradient>
		<polygon class="st6" points="490.7,849.6 490.7,991.2 122.9,778.8 245.5,708 		"/>
		<polygon class="st5" points="490.6,283.4 490.7,566.5 245.5,424.9 		"/>
		<polygon class="st5" points="490.7,566.5 245.5,708 245.5,424.9 		"/>
		<polygon class="st4" points="490.6,141.9 490.6,283.4 245.5,424.9 122.9,354.2 		"/>
		<radialGradient id="SVGID_4_" cx="494.4673" cy="551.6125" r="582.9506" gradientUnits="userSpaceOnUse">
			<stop  offset="0" style="stop-color:#FFFFFF"/>
			<stop  offset="1" style="stop-color:#F7941D"/>
		</radialGradient>
		<polygon class="st7" points="245.5,424.9 245.5,708 122.9,778.8 122.9,354.2 		"/>
	</g>
	<g>
	</g>
</g>
<g id="XMLID_4_">
	<g>
		<polygon class="st8" points="735.8,425 735.8,708.1 490.7,566.5 		"/>
		<polygon class="st8" points="735.8,708.1 490.7,849.6 490.7,566.5 		"/>
		<polygon class="st8" points="735.8,425 490.7,566.5 490.6,283.4 		"/>
		<radialGradient id="SVGID_5_" cx="471.8198" cy="574.2623" r="262.6333" gradientUnits="userSpaceOnUse">
			<stop  offset="0" style="stop-color:#FFFFFF"/>
			<stop  offset="1" style="stop-color:#5CBA47"/>
		</radialGradient>
		<polygon class="st9" points="490.7,566.5 490.7,849.6 245.5,708 		"/>
		<polygon class="st8" points="490.6,283.4 490.7,566.5 245.5,424.9 		"/>
		<radialGradient id="SVGID_6_" cx="471.8197" cy="574.2623" r="262.6316" gradientUnits="userSpaceOnUse">
			<stop  offset="0" style="stop-color:#FFFFFF"/>
			<stop  offset="1" style="stop-color:#5CBA47"/>
		</radialGradient>
		<polygon class="st10" points="490.7,566.5 245.5,708 245.5,424.9 		"/>
	</g>
	<g>
	</g>
</g>
<g id="XMLID_3_">
	<g>
		<polygon class="st11" points="613.2,495.8 613.2,637.3 490.7,566.5 		"/>
		<polygon class="st11" points="613.2,637.3 490.7,708.1 490.7,566.5 		"/>
		<polygon class="st12" points="613.2,495.8 490.7,566.5 490.6,425 		"/>
		<polygon class="st13" points="490.7,566.5 490.7,708.1 368.1,637.3 		"/>
		<polygon class="st12" points="490.6,425 490.7,566.5 368.1,495.7 		"/>
		<polygon class="st13" points="490.7,566.5 368.1,637.3 368.1,495.7 		"/>
	</g>
	<g>
	</g>
</g>
<path class="st14" d="M490.8,423.7"/>
<path class="st14" d="M368.2,352.9"/>
<path class="st14" d="M368.1,495.7"/>
<path class="st14" d="M368.1,495.7"/>
<path class="st14" d="M613.2,495.8"/>
<path class="st14" d="M613.2,495.8"/>
<path class="st15" d="M368.1,354.2"/>
<path class="st15" d="M245.5,283.4"/>
<path class="st15" d="M245.5,283.4"/>
<path class="st15" d="M368.1,212.7"/>
<g id="XMLID_2_">
	<g>
		<polygon class="st8" points="367.8,354.2 367.9,354.3 245.5,425 245.5,283.6 		"/>
		<polygon class="st8" points="245.5,142 245.2,141.9 367.8,71.1 367.8,212.6 367.8,212.6 		"/>
		<polygon class="st8" points="245.5,283.2 367.8,212.6 367.8,354.2 245.5,283.6 245.2,283.4 		"/>
		<polygon class="st8" points="367.8,212.6 367.8,212.6 245.5,283.2 245.5,142 		"/>
	</g>
	<g>
	</g>
</g>
<path class="st15" d="M245.2,141.9"/>
<path class="st15" d="M367.8,212.6"/>
<g id="XMLID_7_">
	<g>
		
			<radialGradient id="SVGID_7_" cx="499.8138" cy="916.6835" r="918.0739" fx="886.0956" fy="1749.5377" gradientUnits="userSpaceOnUse">
			<stop  offset="9.765630e-03" style="stop-color:#7B7D7F"/>
			<stop  offset="0.2058" style="stop-color:#B3B5B8"/>
			<stop  offset="1" style="stop-color:#FFFFFF"/>
		</radialGradient>
		<polygon class="st16" points="735.8,708.1 735.8,425 980.8,283.4 980.9,849.6 		"/>
	</g>
	<g>
	</g>
</g>
<g id="XMLID_1_">
	<g>
		<polygon class="st4" points="892.2,798.4 703.9,689.7 867.6,667.7 		"/>
	</g>
	<g>
	</g>
</g>
</svg>
